Fly_normalized_Motion_pl02
version=1
nRows=18
nColumns=43
inDegrees=yes
endheader
time		pelvis_tilt		pelvis_list		pelvis_rotation		pelvis_tx		pelvis_ty		pelvis_tz		hip_flexion_r		hip_adduction_r		hip_rotation_r		knee_angle_r		ankle_angle_r		subtalar_angle_r		mtp_angle_r		hip_flexion_l		hip_adduction_l		hip_rotation_l		knee_angle_l		ankle_angle_l		subtalar_angle_l		mtp_angle_l		lumbar_extension		lumbar_bending		lumbar_rotation		neck_flexion		neck_lateral_bending		neck_rotation		arm_flex_r		arm_add_r		arm_rot_r		elbow_flex_r		pro_sup_r		wrist_flex_r		wrist_dev_r		hand_finger_flex_r		arm_flex_l		arm_add_l		arm_rot_l		elbow_flex_l		pro_sup_l		wrist_flex_l		wrist_dev_l		hand_finger_flex_l		
0.705833		2.342959		-18.563305		90.274209		-0.003890		1.735066		1.250920		90.514964		-7.719408		-3.934413		-112.973479		-0.022110		-6.480301		7.446375		82.119582		-4.847082		4.046959		-101.210550		-2.689756		-2.201123		-23.413822		-38.483897		-0.758994		1.547810		26.986022		-0.130555		2.727183		102.568751		-25.854186		44.721611		42.705511		94.567986		-12.343764		3.630339		50.818734		113.661081		-29.198417		64.896719		50.337162		114.097565		-40.741870		7.553923		89.295411		
0.709949		2.299972		-18.337038		90.342178		-0.003944		1.730116		1.243145		90.931930		-7.632717		-3.981780		-112.386486		-0.416733		-6.173604		8.159522		82.364679		-4.861168		3.777742		-100.078194		-3.291188		-2.431637		-21.707377		-38.696647		-0.850450		1.668554		26.947207		0.003060		2.442883		100.944310		-26.923102		44.321152		43.038325		96.150402		-11.045062		4.855964		49.908073		112.232695		-29.556182		64.251527		49.832575		115.560546		-40.783823		7.681522		89.703192		
0.714066		2.253383		-18.141600		90.333467		-0.004078		1.725268		1.235659		91.306734		-7.541904		-4.068599		-111.606102		-1.028931		-5.959230		8.321700		82.557839		-4.978844		3.441720		-98.801975		-3.746013		-2.588066		-21.257649		-38.961029		-0.930121		1.738611		26.950186		0.065402		2.476473		99.851199		-28.175802		45.504276		43.332014		97.324656		-10.218223		5.153043		49.662042		111.150022		-30.361662		64.333192		49.698646		115.973774		-40.665786		7.718253		89.813364		
0.718182		2.220009		-18.025547		90.408171		-0.004475		1.719899		1.227962		91.735411		-7.515998		-4.104119		-110.864278		-1.544280		-5.864096		8.639991		82.810636		-4.978799		3.112755		-97.545762		-4.307247		-3.109949		-20.540382		-39.083975		-0.963836		1.944511		27.038733		0.136217		2.252080		98.562902		-29.698581		46.261792		43.949456		98.924718		-8.968576		5.990713		49.138438		109.741516		-30.831705		63.848112		49.380563		117.013783		-40.590186		7.797397		89.972854		
0.722298		2.305568		-17.865325		90.513559		-0.004638		1.714532		1.219903		91.947601		-7.491173		-4.354252		-110.055160		-1.891765		-6.047179		9.498497		82.951512		-5.027767		2.935823		-96.271973		-4.821569		-3.555079		-18.814371		-39.170080		-0.980234		2.373078		26.733280		0.250057		1.684536		96.607531		-31.327923		45.362895		44.943228		101.231041		-6.520039		7.410084		47.437154		107.922339		-30.857413		62.324005		48.807221		119.510534		-39.739005		8.010619		90.000210		
0.726414		2.338092		-17.615458		90.602353		-0.004754		1.709298		1.211967		92.001993		-7.457447		-4.500233		-109.169758		-2.133276		-5.980820		9.629441		82.901271		-5.126021		2.711044		-94.889230		-4.956936		-3.447480		-18.515764		-39.419417		-0.972387		2.365362		26.671602		0.482611		1.765148		95.218136		-32.387340		45.942121		45.041463		101.791969		-5.891179		7.517182		47.171420		106.755787		-31.860308		62.458035		48.802730		119.818240		-39.475056		8.010432		90.000210		
0.730530		2.336138		-17.408866		90.667154		-0.005144		1.703957		1.204048		92.045650		-7.447699		-4.609972		-108.206162		-2.489075		-6.175447		9.803376		82.821310		-5.169078		2.441948		-93.454247		-5.169917		-3.554703		-18.073824		-39.678217		-0.967807		2.534693		26.932820		0.521345		1.730529		93.997652		-33.952329		46.974225		45.646858		103.089997		-4.803980		7.740406		46.751601		105.441674		-32.644594		62.147878		48.764266		120.329779		-39.074758		8.163634		90.000210		
0.734646		2.617761		-17.077934		90.810627		-0.005318		1.698730		1.195777		91.763235		-7.404602		-5.064215		-107.163017		-2.754021		-6.544629		10.448755		82.608486		-5.332678		2.454422		-92.029771		-5.507618		-3.547077		-16.564209		-39.978136		-0.804617		3.111059		26.733545		0.607615		1.289229		92.079589		-35.630977		46.147195		46.468170		104.953774		-2.474662		8.497810		45.210688		103.639546		-32.842863		60.566765		48.434505		122.437929		-37.743734		8.452895		90.000210		
0.738763		2.659829		-16.808583		90.900051		-0.005434		1.693192		1.187681		91.564187		-7.356380		-5.173216		-106.112450		-2.892557		-6.599441		10.568010		82.338787		-5.401642		2.266080		-90.507746		-5.638008		-3.422018		-16.236153		-40.209689		-0.754517		3.144610		26.521452		0.654391		1.259804		90.524724		-36.791566		46.565508		46.718613		105.477828		-1.822927		8.601129		44.947248		102.306876		-33.820490		60.413727		48.272762		122.731328		-37.435907		8.537118		90.000210		
0.742879		2.659775		-16.522561		90.981646		-0.005708		1.687621		1.179553		91.283775		-7.352969		-5.243346		-105.010189		-3.012207		-6.650359		10.595596		81.964320		-5.451166		2.021314		-88.906279		-5.732187		-3.248166		-16.067801		-40.478700		-0.712554		3.201333		26.456327		0.605453		1.240915		89.028873		-38.026471		47.127419		46.911726		105.881201		-1.463535		8.627741		44.928040		100.962305		-34.795252		60.285125		48.123670		122.671548		-37.297514		8.625838		90.000210		
0.746995		2.685920		-16.112037		91.071876		-0.006135		1.682265		1.171191		90.761045		-7.364722		-5.325470		-103.843203		-3.186011		-6.812369		10.676721		81.384948		-5.493495		1.801870		-87.287427		-5.840470		-2.985692		-15.627571		-40.929966		-0.633110		3.451743		26.587759		0.433040		1.029393		87.397831		-39.653980		47.420150		47.550135		106.669358		-0.947563		8.718686		44.875580		99.350090		-35.505330		59.414277		47.918746		122.660187		-37.048366		8.787181		90.000210		
0.751111		2.886753		-15.796650		91.198558		-0.006266		1.676373		1.162490		90.224238		-7.312569		-5.561655		-102.638057		-3.357189		-6.919659		11.090209		80.944459		-5.641391		1.767873		-85.766134		-6.165712		-2.510952		-13.652932		-41.177509		-0.553024		4.202064		26.371399		0.472182		0.387340		84.734362		-41.808987		45.846778		48.806645		108.276418		0.163121		9.296011		44.955181		97.334860		-35.383083		57.370539		47.271624		124.380018		-35.828149		8.418354		90.000210		
0.755227		2.772538		-15.572073		91.313161		-0.006770		1.670156		1.153903		89.852132		-7.424169		-5.449939		-101.469034		-3.571181		-6.893676		11.153449		80.431452		-5.591774		1.429593		-84.080527		-6.269159		-2.088196		-13.141165		-41.356273		-0.529646		4.167092		26.438417		0.266050		0.245305		82.651098		-43.127417		45.525198		49.153859		108.313341		0.070618		9.126517		44.995759		95.550911		-36.418155		56.511006		47.247847		124.052199		-35.881228		8.488334		90.000210		
0.759343		2.736397		-15.354763		91.426431		-0.007225		1.663380		1.145085		89.448870		-7.513854		-5.389192		-100.317613		-3.840642		-6.797741		11.189581		79.954604		-5.604623		1.159645		-82.484733		-6.462425		-1.643563		-12.751588		-41.431685		-0.443718		4.203960		26.085355		0.067598		0.119870		80.412200		-44.460666		45.116676		49.541185		108.300907		-0.058058		9.131314		45.195800		93.718055		-37.533209		55.921067		47.254525		123.985533		-35.959747		8.477397		90.000210		
0.763460		2.647529		-15.494279		91.533727		-0.007384		1.656062		1.136175		89.336022		-7.574263		-5.261809		-99.055831		-4.094710		-6.729070		11.523158		79.729589		-5.640171		0.812429		-80.783084		-6.630283		-1.109476		-10.798083		-41.145319		-0.599275		4.604711		26.177064		0.238166		-0.473379		76.873973		-46.250345		42.685930		50.502294		109.322976		-0.680899		9.823471		46.391896		91.507241		-37.729413		53.968066		46.873598		125.294087		-35.810017		8.182256		90.000210		
0.767576		2.550120		-15.405182		91.681287		-0.007949		1.648929		1.127181		88.957775		-7.771038		-5.158314		-97.784248		-4.576577		-6.648714		11.598570		79.228443		-5.590268		0.487027		-79.070544		-6.827268		-0.585456		-10.137404		-41.131457		-0.531486		4.476888		26.258331		-0.023231		-0.615849		74.183152		-47.386978		41.522883		50.791245		109.002433		-1.227850		9.560569		46.738600		89.453945		-39.127765		53.116042		47.223063		125.141496		-36.026523		8.244986		90.000210		
0.771692		2.445874		-15.430745		91.800542		-0.008367		1.641297		1.118018		88.659236		-7.926725		-5.025401		-96.486745		-5.113313		-6.584621		11.723243		78.803287		-5.584772		0.137769		-77.362384		-7.044884		-0.096844		-9.334702		-40.944275		-0.528326		4.367627		26.267993		-0.137199		-0.751532		71.006278		-48.413720		39.698215		51.154734		109.027878		-2.127081		9.621060		47.334569		87.171727		-40.536316		51.999817		47.684933		125.438221		-36.427523		8.362156		90.000210		
0.775808		2.297215		-15.515985		91.858191		-0.008628		1.633202		1.108727		88.412425		-8.021313		-4.835793		-95.198685		-5.599892		-6.623132		12.018376		78.407281		-5.639660		-0.301259		-75.682058		-7.362385		0.219874		-8.052405		-40.629876		-0.672540		4.398051		26.048608		0.060138		-0.956321		67.288582		-49.529001		37.231583		51.693940		109.844391		-3.061394		9.828566		48.596224		84.813712		-41.677656		50.719888		48.060759		126.477156		-36.602961		8.622666		90.000210		
